<svg width="200" height="72" viewBox="0 0 200 72" fill="none" xmlns="http://www.w3.org/2000/svg">
<path d="M39.006 21.027C48.51 21.027 53.904 27.318 54.687 34.917H54.927C56.3798 34.915 57.8188 35.1993 59.1617 35.7535C60.5046 36.3077 61.7252 37.1211 62.7538 38.1471C63.7823 39.1732 64.5987 40.3918 65.1562 41.7334C65.7137 43.0749 66.0014 44.5132 66.003 45.966C66.001 47.4185 65.713 48.8565 65.1553 50.1977C64.5976 51.5389 63.7812 52.7572 62.7527 53.7829C61.7242 54.8086 60.5038 55.6217 59.161 56.1758C57.8183 56.7298 56.3796 57.014 54.927 57.012H23.082C21.6295 57.014 20.1907 56.7298 18.848 56.1758C17.5053 55.6217 16.2848 54.8086 15.2563 53.7829C14.2278 52.7572 13.4114 51.5389 12.8537 50.1977C12.296 48.8565 12.008 47.4185 12.006 45.966C12.0076 44.5132 12.2953 43.0749 12.8529 41.7334C13.4104 40.3918 14.2267 39.1732 15.2553 38.1471C16.2838 37.1211 17.5044 36.3077 18.8473 35.7535C20.1903 35.1993 21.6292 34.915 23.082 34.917H23.322C24.111 27.267 29.502 21.027 39.006 21.027ZM30 12C34.851 12 39.15 14.445 41.7 18.186C40.8057 18.0825 39.9063 18.0294 39.006 18.027C30.024 18.027 23.493 23.058 21.195 30.666L20.991 31.386L20.817 32.1L20.199 32.217C17.8337 32.7197 15.6382 33.8248 13.8255 35.4252C12.0127 37.0257 10.644 39.0672 9.85201 41.352C8.25712 40.1288 7.0748 38.4467 6.4639 36.5318C5.853 34.617 5.84278 32.561 6.43462 30.6401C7.02645 28.7193 8.192 27.0255 9.77465 25.7865C11.3573 24.5475 13.2813 23.8225 15.288 23.709L16.059 23.691C16.6391 20.415 18.3542 17.4479 20.9034 15.3102C23.4526 13.1724 26.6731 12.0005 30 12Z" fill="white"/>
<path d="M87.6485 38.9471C87.5824 38.2807 87.2988 37.763 86.7976 37.394C86.2965 37.025 85.6163 36.8405 84.7571 36.8405C84.1734 36.8405 83.6804 36.9231 83.2784 37.0884C82.8764 37.2481 82.568 37.4711 82.3532 37.7575C82.1439 38.0439 82.0392 38.3688 82.0392 38.7323C82.0282 39.0352 82.0916 39.2996 82.2293 39.5254C82.3724 39.7512 82.568 39.9467 82.8158 40.1119C83.0636 40.2716 83.35 40.4121 83.6749 40.5332C83.9999 40.6489 84.3468 40.748 84.7158 40.8306L86.2359 41.1941C86.9739 41.3593 87.6513 41.5796 88.2681 41.855C88.8849 42.1304 89.4191 42.4691 89.8707 42.8711C90.3223 43.2732 90.6721 43.7468 90.9199 44.292C91.1732 44.8372 91.3027 45.4623 91.3082 46.1673C91.3027 47.2027 91.0383 48.1004 90.5151 48.8604C89.9974 49.6149 89.2484 50.2014 88.2681 50.62C87.2933 51.033 86.1175 51.2396 84.7406 51.2396C83.3748 51.2396 82.1852 51.0303 81.1718 50.6117C80.164 50.1932 79.3764 49.5736 78.8092 48.753C78.2474 47.9269 77.9528 46.9053 77.9252 45.6881H81.3866C81.4252 46.2554 81.5876 46.729 81.874 47.109C82.1659 47.4835 82.5542 47.7672 83.0388 47.9599C83.529 48.1472 84.0825 48.2408 84.6993 48.2408C85.3051 48.2408 85.8311 48.1527 86.2772 47.9765C86.7288 47.8002 87.0785 47.5551 87.3263 47.2412C87.5742 46.9273 87.6981 46.5666 87.6981 46.159C87.6981 45.779 87.5852 45.4596 87.3594 45.2007C87.1391 44.9419 86.8141 44.7216 86.3846 44.5398C85.9605 44.3581 85.4401 44.1929 84.8232 44.0442L82.981 43.5816C81.5546 43.2346 80.4283 42.6921 79.6022 41.9541C78.7761 41.2161 78.3658 40.2221 78.3713 38.9719C78.3658 37.9475 78.6384 37.0526 79.1892 36.287C79.7454 35.5215 80.5082 34.924 81.4775 34.4944C82.4468 34.0648 83.5483 33.85 84.7819 33.85C86.0376 33.85 87.1336 34.0648 88.0698 34.4944C89.0116 34.924 89.7441 35.5215 90.2673 36.287C90.7905 37.0526 91.0603 37.9393 91.0769 38.9471H87.6485ZM96.8369 47.3486L96.8451 43.1272H97.3573L101.422 38.311H105.461L100.001 44.6885H99.1665L96.8369 47.3486ZM93.6481 51V34.0813H97.1673V51H93.6481ZM101.579 51L97.8447 45.4733L100.191 42.9868L105.701 51H101.579ZM109.565 55.7584C109.119 55.7584 108.7 55.7226 108.309 55.651C107.924 55.5849 107.604 55.4995 107.351 55.3949L108.144 52.7679C108.557 52.8945 108.929 52.9634 109.259 52.9744C109.595 52.9854 109.885 52.9083 110.127 52.7431C110.375 52.5779 110.576 52.297 110.73 51.9005L110.936 51.3635L106.385 38.311H110.086L112.713 47.6295H112.845L115.497 38.311H119.222L114.29 52.3713C114.054 53.0543 113.731 53.649 113.324 54.1557C112.922 54.6679 112.412 55.0617 111.796 55.3371C111.179 55.6179 110.435 55.7584 109.565 55.7584ZM124.898 51L120.057 34.0813H123.964L126.765 45.8368H126.905L129.995 34.0813H133.34L136.422 45.8616H136.571L139.371 34.0813H143.279L138.438 51H134.951L131.73 39.9384H131.597L128.384 51H124.898ZM147.382 51.2396C146.573 51.2396 145.851 51.0991 145.218 50.8183C144.584 50.5319 144.083 50.1106 143.714 49.5543C143.351 48.9926 143.169 48.2931 143.169 47.456C143.169 46.7511 143.298 46.159 143.557 45.6799C143.816 45.2007 144.169 44.8152 144.615 44.5233C145.061 44.2314 145.568 44.0111 146.135 43.8624C146.708 43.7137 147.308 43.6091 147.936 43.5485C148.674 43.4714 149.268 43.3998 149.72 43.3337C150.172 43.2621 150.499 43.1575 150.703 43.0198C150.907 42.8821 151.009 42.6784 151.009 42.4085V42.3589C151.009 41.8357 150.844 41.4309 150.513 41.1445C150.188 40.8582 149.726 40.715 149.125 40.715C148.492 40.715 147.988 40.8554 147.614 41.1363C147.239 41.4117 146.991 41.7586 146.87 42.1772L143.615 41.9128C143.78 41.1418 144.105 40.4754 144.59 39.9137C145.075 39.3464 145.7 38.9113 146.465 38.6084C147.236 38.3 148.128 38.1458 149.142 38.1458C149.847 38.1458 150.521 38.2284 151.166 38.3936C151.816 38.5588 152.391 38.8149 152.892 39.1619C153.399 39.5089 153.798 39.955 154.09 40.5002C154.382 41.0399 154.528 41.687 154.528 42.4415V51H151.191V49.2404H151.091C150.888 49.6369 150.615 49.9866 150.274 50.2895C149.932 50.5869 149.522 50.821 149.043 50.9917C148.564 51.157 148.01 51.2396 147.382 51.2396ZM148.39 48.8108C148.908 48.8108 149.365 48.7089 149.761 48.5052C150.158 48.2959 150.469 48.015 150.695 47.6625C150.921 47.3101 151.034 46.9108 151.034 46.4647V45.1181C150.923 45.1897 150.772 45.2558 150.579 45.3164C150.392 45.3715 150.18 45.4238 149.943 45.4733C149.706 45.5174 149.47 45.5587 149.233 45.5973C148.996 45.6303 148.781 45.6606 148.588 45.6881C148.175 45.7487 147.815 45.8451 147.506 45.9773C147.198 46.1094 146.958 46.2884 146.787 46.5142C146.617 46.7345 146.531 47.0099 146.531 47.3403C146.531 47.8195 146.705 48.1857 147.052 48.4391C147.404 48.6869 147.85 48.8108 148.39 48.8108ZM164.008 38.311V40.9545H156.366V38.311H164.008ZM158.101 35.2709H161.62V47.1008C161.62 47.4257 161.67 47.6791 161.769 47.8608C161.868 48.037 162.006 48.1609 162.182 48.2325C162.364 48.3041 162.573 48.3399 162.81 48.3399C162.975 48.3399 163.14 48.3262 163.305 48.2986C163.471 48.2656 163.597 48.2408 163.685 48.2243L164.239 50.843C164.063 50.8981 163.815 50.9614 163.495 51.033C163.176 51.1101 162.788 51.157 162.331 51.1735C161.482 51.2065 160.739 51.0936 160.1 50.8348C159.467 50.5759 158.974 50.1739 158.621 49.6287C158.269 49.0834 158.095 48.395 158.101 47.5634V35.2709ZM171.897 51.2478C170.597 51.2478 169.479 50.9725 168.543 50.4217C167.612 49.8655 166.896 49.0944 166.395 48.1086C165.899 47.1228 165.652 45.9883 165.652 44.7051C165.652 43.4053 165.902 42.2653 166.403 41.285C166.91 40.2992 167.629 39.5309 168.559 38.9801C169.49 38.4239 170.597 38.1458 171.88 38.1458C172.987 38.1458 173.957 38.3468 174.788 38.7488C175.62 39.1509 176.278 39.7154 176.763 40.4424C177.247 41.1693 177.514 42.023 177.564 43.0033H174.243C174.149 42.3699 173.902 41.8605 173.5 41.475C173.103 41.084 172.583 40.8885 171.938 40.8885C171.393 40.8885 170.917 41.0372 170.509 41.3346C170.107 41.6264 169.793 42.0533 169.567 42.615C169.341 43.1768 169.229 43.8569 169.229 44.6555C169.229 45.4651 169.339 46.1535 169.559 46.7208C169.785 47.288 170.102 47.7204 170.509 48.0178C170.917 48.3152 171.393 48.4639 171.938 48.4639C172.34 48.4639 172.701 48.3812 173.02 48.216C173.345 48.0508 173.612 47.8112 173.822 47.4973C174.037 47.1779 174.177 46.7951 174.243 46.349H177.564C177.509 47.3183 177.245 48.172 176.771 48.91C176.303 49.6424 175.656 50.2152 174.83 50.6283C174.003 51.0413 173.026 51.2478 171.897 51.2478ZM183.336 43.6642V51H179.817V34.0813H183.237V40.5498H183.386C183.672 39.8007 184.135 39.2142 184.774 38.7901C185.413 38.3606 186.214 38.1458 187.178 38.1458C188.059 38.1458 188.827 38.3385 189.483 38.7241C190.144 39.1041 190.656 39.652 191.019 40.368C191.388 41.0785 191.57 41.9294 191.564 42.9207V51H188.045V43.5485C188.051 42.7665 187.852 42.1579 187.45 41.7228C187.054 41.2877 186.498 41.0702 185.782 41.0702C185.303 41.0702 184.878 41.1721 184.51 41.3759C184.146 41.5796 183.86 41.877 183.65 42.2681C183.447 42.6536 183.342 43.1189 183.336 43.6642Z" fill="white"/>
</svg>
